<svg xmlns="http://www.w3.org/2000/svg" xmlns:xlink="http://www.w3.org/1999/xlink" width="1024" height="1024" preserveAspectRatio="xMidYMid meet" viewBox="0 0 1024 1024" style="-ms-transform: rotate(360deg); -webkit-transform: rotate(360deg); transform: rotate(360deg);"><path d="M768 0H416q-27 0-45.5 18.5T352 64h352v256h256v512H736v64h224q27 0 45.5-18.5T1024 832V256zm0 256V90l165 166H768zM64 128q-27 0-45.5 18.5T0 192v768q0 27 18.5 45.5T64 1024h544q27 0 45.5-18.5T672 960V384L416 128H64zm544 832H64V192h288v256h256v512zM416 384V218l165 166H416z" fill="#d31d4d"/><rect x="0" y="0" width="1024" height="1024" fill="rgba(0, 0, 0, 0)" /></svg>