<svg xmlns="http://www.w3.org/2000/svg" xmlns:xlink="http://www.w3.org/1999/xlink" width="15" height="15" preserveAspectRatio="xMidYMid meet" viewBox="0 0 15 15" style="-ms-transform: rotate(360deg); -webkit-transform: rotate(360deg); transform: rotate(360deg);"><g fill="none"><path fill-rule="evenodd" clip-rule="evenodd" d="M3 1.5A1.5 1.5 0 0 1 4.5 0h6.151L14 2.232V11.5a1.5 1.5 0 0 1-1.5 1.5H12v.5a1.5 1.5 0 0 1-1.5 1.5h-8A1.5 1.5 0 0 1 1 13.5v-10A1.5 1.5 0 0 1 2.5 2H3v-.5zM3 3h-.5a.5.5 0 0 0-.5.5v10a.5.5 0 0 0 .5.5h8a.5.5 0 0 0 .5-.5V13H4.5A1.5 1.5 0 0 1 3 11.5V3z" fill="#d31d4d"/></g><rect x="0" y="0" width="15" height="15" fill="rgba(0, 0, 0, 0)" /></svg>