<svg id="Layer_1" data-name="Layer 1" xmlns="http://www.w3.org/2000/svg" viewBox="0 0 171.17 129.28"><defs><style>.cls-1{fill:#fff;}.cls-2{fill:#d31d4d;}</style></defs><title>logo-1</title><path class="cls-1" d="M1.67,9.9c6.21,6.43,12.52,12.78,18.55,19.38,1,1.12,1.2,3.34,1.22,5,.09,13.82,0,27.64.06,41.46.06,18.7,13.69,32.85,32.39,33.55,5.28.2,10.56,0,16.12,0v18.94c-34.42,5-62.41-8.62-68-45.86C-1,62.51.5,41.94,0,21.67-.08,18,0,14.4,0,10.76Z" transform="translate(0.03 0)"/><path class="cls-1" d="M51.73,70.61V7.9h5.58c19.5,0,39,.54,58.49-.15C136.87,7,162.26,19,168.27,50.38,171,64.62,170.44,79.52,171,94.13c.37,10.57.07,21.16.07,31.74l-1.56.63c-6.21-6.39-12.51-12.71-18.56-19.26-.93-1-1-3.06-1-4.63-.07-14,0-28,0-42-.06-18.7-14.08-33-32.73-33.11-15.3-.13-30.59,0-46.34,0V70.68Z" transform="translate(0.03 0)"/><circle class="cls-2" cx="21" cy="9.92" r="9.92"/></svg>