<svg id="Layer_1" data-name="Layer 1" xmlns="http://www.w3.org/2000/svg" viewBox="0 0 171.15 129.32"><defs><style>.cls-1{fill:#fff;}</style></defs><title>as</title><path class="cls-1" d="M217,347c6.21,6.43,12.52,12.78,18.55,19.38,1,1.12,1.2,3.34,1.22,5.05.09,13.82,0,27.64.06,41.46.06,18.7,13.69,32.85,32.39,33.55,5.28.2,10.56,0,16.12,0v18.94c-34.42,5-62.41-8.62-68-45.86-3-19.91-1.51-40.48-2-60.75-.09-3.63,0-7.27,0-10.91Z" transform="translate(-215.33 -337.1)"/><path class="cls-1" d="M267.06,407.71V345h5.58c19.5,0,39,.54,58.49-.15,21.07-.74,46.46,11.25,52.47,42.63,2.73,14.24,2.17,29.14,2.69,43.75.37,10.57.07,21.16.07,31.74l-1.56.63c-6.21-6.39-12.51-12.71-18.56-19.26-.93-1-1-3.06-1-4.63-.07-14,0-28-.05-42-.06-18.7-14.08-33-32.73-33.11-15.3-.13-30.59,0-46.34,0v43.18Z" transform="translate(-215.33 -337.1)"/><circle class="cls-1" cx="20.97" cy="9.92" r="9.92"/></svg>