<svg xmlns="http://www.w3.org/2000/svg" xmlns:xlink="http://www.w3.org/1999/xlink" width="32" height="32" preserveAspectRatio="xMidYMid meet" viewBox="0 0 32 32" style="-ms-transform: rotate(360deg); -webkit-transform: rotate(360deg); transform: rotate(360deg);"><path d="M11.92 24.94A12.76 12.76 0 0 0 24.76 12.1v-.59A9.4 9.4 0 0 0 27 9.18a9.31 9.31 0 0 1-2.59.71a4.56 4.56 0 0 0 2-2.5a8.89 8.89 0 0 1-2.86 1.1a4.52 4.52 0 0 0-7.7 4.11a12.79 12.79 0 0 1-9.3-4.71a4.51 4.51 0 0 0 1.4 6a4.47 4.47 0 0 1-2-.56v.05a4.53 4.53 0 0 0 3.55 4.45a4.53 4.53 0 0 1-2 .08A4.51 4.51 0 0 0 11.68 21a9.05 9.05 0 0 1-5.61 2A9.77 9.77 0 0 1 5 22.91a12.77 12.77 0 0 0 6.92 2" fill="#d31d4d"/><rect x="0" y="0" width="32" height="32" fill="rgba(0, 0, 0, 0)" /></svg>