<svg xmlns="http://www.w3.org/2000/svg" xmlns:xlink="http://www.w3.org/1999/xlink" width="24" height="24" preserveAspectRatio="xMidYMid meet" viewBox="0 0 24 24" style="-ms-transform: rotate(360deg); -webkit-transform: rotate(360deg); transform: rotate(360deg);"><g fill="none"><path d="M8.016 6.982a1.003 1.003 0 0 0 0 2.006h7.95a1.003 1.003 0 0 0 0-2.006h-7.95z" fill="#d31d4d"/><path d="M7.016 12c0-.552.447-1.003 1-1.003h7.95a1.003 1.003 0 0 1 0 2.006h-7.95c-.553 0-1-.45-1-1.003z" fill="#d31d4d"/><path d="M8.025 15.012a1.003 1.003 0 0 0 0 2.007h7.95a1.003 1.003 0 0 0 0-2.007h-7.95z" fill="#d31d4d"/><path fill-rule="evenodd" clip-rule="evenodd" d="M3 6a3 3 0 0 1 3-3h12a3 3 0 0 1 3 3v12a3 3 0 0 1-3 3H6a3 3 0 0 1-3-3V6zm3-1h12a1 1 0 0 1 1 1v12a1 1 0 0 1-1 1H6a1 1 0 0 1-1-1V6a1 1 0 0 1 1-1z" fill="#d31d4d"/></g><rect x="0" y="0" width="24" height="24" fill="rgba(0, 0, 0, 0)" /></svg>