<svg xmlns="http://www.w3.org/2000/svg" xmlns:xlink="http://www.w3.org/1999/xlink" width="20" height="20" preserveAspectRatio="xMidYMid meet" viewBox="0 0 20 20" style="-ms-transform: rotate(360deg); -webkit-transform: rotate(360deg); transform: rotate(360deg);"><g fill="none"><path fill-rule="evenodd" clip-rule="evenodd" d="M3 5a1 1 0 0 1 1-1h12a1 1 0 1 1 0 2H4a1 1 0 0 1-1-1z" fill="#d31d4d"/><path fill-rule="evenodd" clip-rule="evenodd" d="M3 10a1 1 0 0 1 1-1h6a1 1 0 1 1 0 2H4a1 1 0 0 1-1-1z" fill="#d31d4d"/><path fill-rule="evenodd" clip-rule="evenodd" d="M3 15a1 1 0 0 1 1-1h12a1 1 0 1 1 0 2H4a1 1 0 0 1-1-1z" fill="#d31d4d"/></g><rect x="0" y="0" width="20" height="20" fill="rgba(0, 0, 0, 0)" /></svg>