<svg xmlns="http://www.w3.org/2000/svg" xmlns:xlink="http://www.w3.org/1999/xlink" width="21" height="21" preserveAspectRatio="xMidYMid meet" viewBox="0 0 21 21" style="-ms-transform: rotate(360deg); -webkit-transform: rotate(360deg); transform: rotate(360deg);"><g fill="none" fill-rule="evenodd"><g stroke="#fff" stroke-linecap="round" stroke-linejoin="round"><path d="M7.5 6.5h8"/><path d="M7.5 10.498h5"/><path d="M7.5 14.5h8"/></g><path d="M4.499 7.5c.5 0 1-.5 1-1s-.5-1-1-1s-.999.5-.999 1s.499 1 .999 1zm0 4c.5 0 1-.5 1-1s-.5-1-1-1s-.999.5-.999 1s.499 1 .999 1zm0 4c.5 0 1-.5 1-1s-.5-1-1-1s-.999.5-.999 1s.499 1 .999 1z" fill="#fff"/></g><rect x="0" y="0" width="21" height="21" fill="rgba(0, 0, 0, 0)" /></svg>